<svg width="210" height="63" viewBox="0 0 210 63" fill="none" xmlns="http://www.w3.org/2000/svg">
<g clip-path="url(#clip0_1816_21880)">
<g clip-path="url(#clip1_1816_21880)">
<path d="M201.974 62.4287H8.40676C4.14828 62.4287 0.664062 58.9445 0.664062 54.686V8.22983C0.664062 3.97135 4.14828 0.487137 8.40676 0.487137H201.974C206.233 0.487137 209.717 3.97135 209.717 8.22983V54.686C209.717 58.9445 206.233 62.4287 201.974 62.4287Z" fill="white"/>
<path d="M201.974 0.487137H8.40676C4.14828 0.487137 0.664062 3.97135 0.664062 8.22983V54.686C0.664062 58.9445 4.14828 62.4287 8.40676 62.4287H201.974C206.233 62.4287 209.717 58.9445 209.717 54.686V8.22983C209.717 3.97135 206.233 0.487137 201.974 0.487137ZM201.974 1.72597C205.561 1.72597 208.478 4.64404 208.478 8.22983V54.686C208.478 58.2724 205.561 61.1905 201.974 61.1905H8.40676C4.82096 61.1905 1.90289 58.2724 1.90289 54.686V8.22983C1.90289 4.64404 4.82096 1.72597 8.40676 1.72597H201.974Z" fill="black"/>
<path d="M32.5916 30.4104L16.1055 47.9085C16.1061 47.9121 16.1073 47.9151 16.1079 47.9187C16.6135 49.8187 18.3489 51.2178 20.4086 51.2178C21.2319 51.2178 22.0049 50.9952 22.6679 50.6044L22.7205 50.5736L41.2777 39.8654L32.5916 30.4104Z" fill="#EB3131"/>
<path d="M49.2703 27.4305L49.2545 27.4197L41.2429 22.7753L32.2168 30.807L41.2743 39.8633L49.2436 35.265C50.6409 34.5107 51.5893 33.0378 51.5893 31.3393C51.5893 29.6529 50.6536 28.1873 49.2703 27.4305Z" fill="#F6B60B"/>
<path d="M16.1043 14.6976C16.0052 15.0631 15.9531 15.4459 15.9531 15.8434V46.7632C15.9531 47.16 16.0046 47.5441 16.1049 47.9082L33.1584 30.8578L16.1043 14.6976Z" fill="#5778C5"/>
<path d="M32.7138 31.3027L41.2469 22.772L22.7108 12.0251C22.037 11.6216 21.2507 11.3887 20.4092 11.3887C18.3496 11.3887 16.6118 12.7903 16.1061 14.6926C16.1055 14.6944 16.1055 14.6957 16.1055 14.6974L32.7138 31.3027Z" fill="#3BAD49"/>
</g>
<path d="M74.0679 16.35C74.0679 17.6473 73.6837 18.6805 72.9142 19.4512C72.0402 20.3676 70.9011 20.8262 69.5008 20.8262C68.1597 20.8262 67.0195 20.3616 66.0819 19.4312C65.1426 18.5015 64.6738 17.3486 64.6738 15.973C64.6738 14.5969 65.1426 13.4446 66.0819 12.5142C67.0195 11.5845 68.1597 11.1193 69.5008 11.1193C70.1662 11.1193 70.8033 11.2494 71.4081 11.5089C72.013 11.7691 72.4981 12.1144 72.8611 12.5469L72.0444 13.3641C71.4293 12.6291 70.5824 12.262 69.5008 12.262C68.5227 12.262 67.6771 12.6056 66.9633 13.2933C66.2495 13.9818 65.8927 14.8745 65.8927 15.973C65.8927 17.0716 66.2495 17.9643 66.9633 18.6528C67.6771 19.3405 68.5227 19.6841 69.5008 19.6841C70.5383 19.6841 71.4033 19.3386 72.0958 18.6468C72.5454 18.196 72.8054 17.5694 72.8749 16.7648H69.5008V15.6488H74.0032C74.0467 15.8914 74.0679 16.1243 74.0679 16.35Z" fill="black"/>
<path d="M74.0684 16.3494H73.9136C73.9124 17.6172 73.5421 18.6019 72.8053 19.3412L72.8036 19.3424L72.803 19.3437C71.9567 20.2285 70.869 20.6689 69.5013 20.6708C68.1961 20.6689 67.1036 20.2237 66.1913 19.3212C65.2811 18.4169 64.8309 17.3129 64.8292 15.9725C64.8309 14.6315 65.2811 13.5281 66.1913 12.6244C67.1036 11.7213 68.1961 11.2755 69.5013 11.2736C70.1468 11.2736 70.7614 11.3995 71.3475 11.6505C71.9342 11.9034 72.3977 12.2348 72.7431 12.6462L72.8617 12.5463L72.7522 12.4369L71.9355 13.2547L72.045 13.3635L72.1642 13.2644C71.5205 12.4931 70.6169 12.1042 69.5013 12.1066C68.487 12.1053 67.5948 12.4677 66.8567 13.1816C66.1116 13.8978 65.7371 14.8407 65.7384 15.9725C65.7371 17.1043 66.1116 18.0472 66.8567 18.7634C67.5948 19.4773 68.487 19.8397 69.5013 19.8384C70.5732 19.8403 71.4867 19.4767 72.2059 18.7557C72.6862 18.2741 72.9585 17.607 73.0298 16.7776L73.0442 16.6094H69.6562V15.8031H74.0037V15.6482L73.8512 15.6755C73.8936 15.9102 73.9136 16.1334 73.9136 16.3494H74.0684H74.2233C74.2233 16.114 74.2015 15.8721 74.1561 15.6205L74.1332 15.4934H69.3465V16.7643V16.9191H72.8754V16.7643L72.7212 16.7509C72.6529 17.5302 72.4049 18.1169 71.9869 18.5367C71.3215 19.1996 70.5049 19.5269 69.5013 19.5287C68.5595 19.5275 67.7605 19.2032 67.0715 18.5409C66.3892 17.8809 66.0498 17.0384 66.0481 15.9725C66.0498 14.9066 66.3892 14.0641 67.0715 13.4041C67.7605 12.7418 68.5595 12.4175 69.5013 12.4163C70.5485 12.4187 71.3391 12.7647 71.9265 13.4634L72.0354 13.5929L72.9712 12.6558L73.0715 12.5555L72.9801 12.4471C72.5997 11.9935 72.0928 11.6335 71.4697 11.3662C70.8455 11.0982 70.1867 10.9639 69.5013 10.9639C68.1247 10.9627 66.9366 11.4466 65.973 12.4042C65.0058 13.36 64.5183 14.5613 64.5195 15.9725C64.5183 17.3831 65.0058 18.585 65.9736 19.5414C66.9366 20.4984 68.1247 20.9817 69.5013 20.9805C70.935 20.9817 72.1243 20.5055 73.0267 19.5577L72.9148 19.4507L73.0243 19.5601C73.8264 18.7586 74.2244 17.6759 74.2233 16.3494H74.0684Z" fill="black"/>
<path d="M81.2053 12.4684H76.9741V15.4143H80.7898V16.5308H76.9741V19.4767H81.2053V20.6182H75.7812V11.3269H81.2053V12.4684Z" fill="black"/>
<path d="M81.2059 12.4688V12.3139H76.8198V15.5696H80.6356V16.3759L76.8198 16.3764V19.632H81.051V20.4637H75.9367V11.4822H81.051V12.4688H81.2059V12.3139V12.4688H81.3607V11.3273V11.1725H75.627V20.7734H81.3607V19.4772V19.3223H77.1295V16.6861H80.9453V15.4147V15.2599H77.1295V12.6236H81.3607V12.4688H81.2059Z" fill="black"/>
<path d="M86.2409 20.6182H85.0462V12.4684H82.4512V11.3269H88.836V12.4684H86.2409V20.6182Z" fill="black"/>
<path d="M86.2395 20.6186V20.4637H85.1997V12.3139H82.6046V11.4822H88.6797V12.3139H86.0847V20.6186H86.2395V20.4637V20.6186H86.3944V12.6236H88.9894V11.3273V11.1725H82.2949V12.4688V12.6236H84.89V20.7734H86.2395H86.3944V20.6186H86.2395Z" fill="black"/>
<path d="M93.4551 20.6182V11.3269H94.6485V20.6182H93.4551Z" fill="black"/>
<path d="M93.4556 20.6186H93.6105V11.4822H94.4942V20.4637H93.4556V20.6186H93.6105H93.4556V20.7734H94.6491H94.8039V11.1725H93.4556H93.3008V20.7734H93.4556V20.6186Z" fill="black"/>
<path d="M99.9439 20.6182H98.7492V12.4684H96.1543V11.3269H102.539V12.4684H99.9439V20.6182Z" fill="black"/>
<path d="M99.9444 20.6186V20.4637H98.9046V12.3139H96.3097V11.4822H102.385V12.3139H99.7896V20.6186H99.9444V20.4637V20.6186H100.099V12.6236H102.694V11.3273V11.1725H96V12.4688V12.6236H98.5949V20.7734H99.9444H100.099V20.6186H99.9444Z" fill="black"/>
<path d="M108.695 18.6401C109.383 19.3363 110.225 19.6841 111.22 19.6841C112.215 19.6841 113.057 19.3363 113.743 18.6401C114.432 17.9439 114.777 17.0539 114.777 15.973C114.777 14.8922 114.432 14.0022 113.743 13.306C113.057 12.6098 112.215 12.262 111.22 12.262C110.225 12.262 109.383 12.6098 108.695 13.306C108.009 14.0022 107.664 14.8922 107.664 15.973C107.664 17.0539 108.009 17.9439 108.695 18.6401ZM114.627 19.4179C113.713 20.3573 112.577 20.8262 111.22 20.8262C109.861 20.8262 108.726 20.3573 107.814 19.4179C106.9 18.4797 106.445 17.3311 106.445 15.973C106.445 14.615 106.9 13.4663 107.814 12.5282C108.726 11.5887 109.861 11.1193 111.22 11.1193C112.57 11.1193 113.703 11.5911 114.62 12.5342C115.537 13.4773 115.995 14.6235 115.995 15.973C115.995 17.3311 115.538 18.4797 114.627 19.4179Z" fill="black"/>
<path d="M108.694 18.6395L108.584 18.7484C109.297 19.4725 110.187 19.8403 111.218 19.8384C112.249 19.8403 113.14 19.4725 113.852 18.7484C114.57 18.0237 114.931 17.086 114.93 15.9725C114.931 14.8589 114.57 13.9213 113.852 13.1966C113.14 12.4725 112.249 12.1047 111.218 12.1066C110.187 12.1047 109.297 12.4725 108.584 13.1966C107.868 13.9213 107.506 14.8589 107.508 15.9725C107.506 17.086 107.868 18.0237 108.584 18.7484L108.694 18.6395L108.804 18.5307C108.147 17.8622 107.819 17.0213 107.818 15.9725C107.819 14.9237 108.147 14.0828 108.804 13.4143C109.467 12.746 110.259 12.4181 111.218 12.4163C112.177 12.4181 112.971 12.746 113.632 13.4143C114.29 14.0828 114.619 14.9237 114.62 15.9725C114.619 17.0213 114.29 17.8622 113.632 18.5307C112.971 19.199 112.177 19.5269 111.218 19.5287C110.259 19.5269 109.467 19.199 108.804 18.5307L108.694 18.6395ZM114.625 19.4174L114.514 19.3097C113.627 20.2195 112.541 20.6689 111.218 20.6708C109.895 20.6689 108.81 20.2195 107.923 19.3097L107.919 19.3049L107.923 19.3097C107.037 18.3969 106.6 17.296 106.599 15.9725C106.6 14.649 107.037 13.5481 107.923 12.6352C108.81 11.7255 109.895 11.2755 111.218 11.2736C112.532 11.2755 113.616 11.7273 114.508 12.6419C115.398 13.5589 115.837 14.6581 115.839 15.9725C115.837 17.296 115.399 18.3969 114.514 19.3097L114.625 19.4174L114.737 19.525C115.675 18.5609 116.15 17.3649 116.149 15.9725C116.15 14.5879 115.673 13.3945 114.73 12.426C113.787 11.4539 112.605 10.9622 111.218 10.9639C109.825 10.9622 108.639 11.4515 107.701 12.42V12.4194C106.761 13.3841 106.288 14.58 106.289 15.9725C106.288 17.3649 106.761 18.5609 107.701 19.5256L107.706 19.5299L107.701 19.525C108.639 20.4935 109.825 20.9817 111.218 20.9805C112.611 20.9817 113.797 20.4935 114.737 19.525L114.625 19.4174Z" fill="black"/>
<path d="M117.67 20.6182V11.3269H119.123L123.638 18.5549H123.69L123.638 16.7643V11.3269H124.833V20.6182H123.587L118.863 13.0399H118.811L118.863 14.8311V20.6182H117.67Z" fill="black"/>
<path d="M117.67 20.6186H117.825V11.4822H119.038L123.553 18.7102H123.69H123.849L123.794 16.7624V11.4822H124.679V20.4637H123.674L118.949 12.8855H118.812H118.653L118.708 14.834V20.4637H117.67V20.6186H117.825H117.67V20.7734H118.863H119.018V14.8291L118.967 13.0362L118.812 13.0403V13.1952H118.863V13.0403L118.732 13.1227L123.502 20.7734H124.834H124.989V11.1725H123.639H123.484V16.7666L123.536 18.5595L123.69 18.5553V18.4005H123.639V18.5553L123.77 18.4731L119.209 11.1725H117.67H117.516V20.7734H117.67V20.6186Z" fill="black"/>
<path d="M166.233 46.9437H169.123V27.5851H166.233V46.9437ZM192.259 34.5585L188.947 42.9514H188.848L185.41 34.5585H182.298L187.453 46.2891L184.514 52.8142H187.529L195.473 34.5585H192.259ZM175.873 44.7449C174.925 44.7449 173.606 44.2719 173.606 43.1008C173.606 41.6067 175.25 41.0339 176.669 41.0339C177.94 41.0339 178.536 41.3078 179.309 41.6818C179.084 43.4747 177.541 44.7449 175.873 44.7449ZM176.221 34.135C174.129 34.135 171.963 35.0568 171.066 37.099L173.631 38.1697C174.179 37.099 175.199 36.75 176.271 36.75C177.765 36.75 179.284 37.647 179.309 39.241V39.4399C178.786 39.1411 177.666 38.6929 176.296 38.6929C173.531 38.6929 170.716 40.2117 170.716 43.0511C170.716 45.6414 172.983 47.3102 175.523 47.3102C177.466 47.3102 178.536 46.4386 179.21 45.4176H179.309V46.9116H182.098V39.4895C182.098 36.0531 179.534 34.135 176.221 34.135ZM158.363 36.9151H154.254V30.2794H158.363C160.524 30.2794 161.75 32.068 161.75 33.5972C161.75 35.0974 160.524 36.9151 158.363 36.9151ZM158.289 27.5851H151.366V46.9437H154.254V39.6094H158.289C161.492 39.6094 164.64 37.2907 164.64 33.5972C164.64 29.9037 161.492 27.5851 158.289 27.5851ZM120.534 44.7485C118.538 44.7485 116.867 43.0772 116.867 40.7816C116.867 38.4619 118.538 36.7652 120.534 36.7652C122.505 36.7652 124.052 38.4619 124.052 40.7816C124.052 43.0772 122.505 44.7485 120.534 44.7485ZM123.852 35.6425H123.752C123.104 34.8693 121.856 34.1707 120.284 34.1707C116.991 34.1707 113.973 37.0645 113.973 40.7816C113.973 44.4739 116.991 47.3429 120.284 47.3429C121.856 47.3429 123.104 46.6442 123.752 45.8464H123.852V46.7943C123.852 49.3144 122.505 50.6614 120.335 50.6614C118.563 50.6614 117.466 49.3887 117.016 48.3162L114.497 49.3639C115.22 51.1102 117.141 53.2559 120.335 53.2559C123.727 53.2559 126.596 51.2596 126.596 46.3951V34.5699H123.852V35.6425ZM128.592 46.9437H131.486V27.5845H128.592V46.9437ZM135.752 40.5572C135.677 38.0123 137.723 36.7154 139.195 36.7154C140.343 36.7154 141.316 37.2889 141.639 38.1128L135.752 40.5572ZM144.733 38.362C144.185 36.8897 142.513 34.1707 139.095 34.1707C135.702 34.1707 132.883 36.8401 132.883 40.7568C132.883 44.4492 135.677 47.3429 139.419 47.3429C142.438 47.3429 144.185 45.4967 144.908 44.4242L142.663 42.9271C141.915 44.025 140.891 44.7485 139.419 44.7485C137.947 44.7485 136.9 44.0747 136.226 42.7529L145.032 39.1103L144.733 38.362ZM74.5717 36.1916V38.9856H81.2575C81.0579 40.5572 80.534 41.7047 79.7356 42.5031C78.7629 43.4764 77.241 44.5489 74.5717 44.5489C70.4552 44.5489 67.2372 41.231 67.2372 37.1147C67.2372 32.9983 70.4552 29.68 74.5717 29.68C76.7921 29.68 78.4133 30.5533 79.6109 31.676L81.5818 29.7054C79.9104 28.1084 77.6898 26.8859 74.5717 26.8859C68.9333 26.8859 64.1934 31.4764 64.1934 37.1147C64.1934 42.7529 68.9333 47.3429 74.5717 47.3429C77.6155 47.3429 79.9104 46.3455 81.7064 44.4739C83.5526 42.6278 84.1266 40.0333 84.1266 37.938C84.1266 37.2889 84.0769 36.6907 83.9766 36.1916H74.5717ZM91.7278 44.7485C89.7316 44.7485 88.0101 43.1019 88.0101 40.7568C88.0101 38.3868 89.7316 36.7652 91.7278 36.7652C93.7232 36.7652 95.4447 38.3868 95.4447 40.7568C95.4447 43.1019 93.7232 44.7485 91.7278 44.7485ZM91.7278 34.1707C88.085 34.1707 85.1161 36.9398 85.1161 40.7568C85.1161 44.5489 88.085 47.3429 91.7278 47.3429C95.3698 47.3429 98.3387 44.5489 98.3387 40.7568C98.3387 36.9398 95.3698 34.1707 91.7278 34.1707ZM106.15 44.7485C104.154 44.7485 102.433 43.1019 102.433 40.7568C102.433 38.3868 104.154 36.7652 106.15 36.7652C108.145 36.7652 109.867 38.3868 109.867 40.7568C109.867 43.1019 108.145 44.7485 106.15 44.7485ZM106.15 34.1707C102.507 34.1707 99.5388 36.9398 99.5388 40.7568C99.5388 44.5489 102.507 47.3429 106.15 47.3429C109.792 47.3429 112.761 44.5489 112.761 40.7568C112.761 36.9398 109.792 34.1707 106.15 34.1707Z" fill="black"/>
</g>
<defs>
<clipPath id="clip0_1816_21880">
<rect width="209.517" height="62.2513" fill="white" transform="translate(0.482422 0.332031)"/>
</clipPath>
<clipPath id="clip1_1816_21880">
<rect width="209.517" height="62.2513" fill="white" transform="translate(0.509766 0.332031)"/>
</clipPath>
</defs>
</svg>
